<svg xmlns="http://www.w3.org/2000/svg" width="95" height="95" viewBox="0 0 95 96">
<g>
<path d="M 53.90 76.93 C46.17,78.58 41.66,77.95 34.34,74.19 C25.76,69.78 21.96,61.05 21.23,44.09 C20.35,23.74 24.07,12.30 33.42,6.54 C37.89,3.78 39.11,3.50 46.94,3.50 C57.89,3.50 64.03,6.26 68.25,13.08 C75.46,24.75 75.88,52.52 69.05,65.91 C66.38,71.14 60.31,75.55 53.90,76.93 ZM 37.50 71.12 C41.99,73.18 51.28,73.60 55.68,71.94 C59.45,70.52 63.76,66.32 66.06,61.85 C68.05,57.97 70.10,47.43 69.28,45.28 C68.61,43.53 60.61,43.63 57.13,45.43 C54.19,46.95 49.78,52.71 48.08,57.25 C46.92,60.35 44.00,60.99 44.00,58.15 C44.00,57.13 45.15,54.14 46.55,51.50 C49.87,45.26 49.31,44.00 43.18,44.00 C37.33,44.00 32.63,46.81 29.79,52.00 C26.11,58.76 29.63,67.49 37.50,71.12 ZM 32.38 14.55 C32.83,15.72 35.68,16.00 47.41,16.00 C62.09,16.00 64.42,15.42 61.91,12.39 C57.94,7.60 44.03,6.00 36.70,9.47 C32.44,11.49 31.59,12.49 32.38,14.55 ZM 59.72 89.49 C53.16,91.44 46.00,91.50 46.00,89.61 C46.00,88.72 47.69,87.99 50.75,87.56 C58.44,86.47 65.63,82.45 69.77,76.90 C71.78,74.20 74.01,72.00 74.71,72.00 C77.53,72.00 75.71,76.20 70.40,81.93 C65.99,86.70 63.72,88.30 59.72,89.49 ZM 37.76 87.99 C37.34,90.22 34.88,90.25 31.36,88.09 C27.48,85.71 26.45,84.15 27.85,82.75 C29.32,81.28 38.15,85.94 37.76,87.99 Z" fill="rgb(7,7,7)"/>
</g>
</svg>